<?xml version="1.0" standalone="no"?><!DOCTYPE svg PUBLIC "-//W3C//DTD SVG 1.1//EN" "http://www.w3.org/Graphics/SVG/1.1/DTD/svg11.dtd"><svg t="1778456767790" class="icon" viewBox="0 0 1024 1024" version="1.1" xmlns="http://www.w3.org/2000/svg" p-id="2379" xmlns:xlink="http://www.w3.org/1999/xlink" width="200" height="200"><path d="M318.57 223.95l322.99 322.99c21.87 21.87 57.33 21.87 79.2 0 21.87-21.87 21.87-57.33 0-79.2l-323-322.99c-21.87-21.87-57.33-21.87-79.2 0-21.86 21.87-21.86 57.33 0.01 79.2z" fill="#666666" p-id="2380"></path><path d="M729.75 555.95L406.76 878.93c-21.87 21.87-57.33 21.87-79.2 0-21.87-21.87-21.87-57.33 0-79.2l322.99-322.99c21.87-21.87 57.33-21.87 79.2 0 21.87 21.88 21.87 57.34 0 79.21z" fill="#666666" p-id="2381"></path></svg>