<?xml version="1.0" standalone="no"?><!DOCTYPE svg PUBLIC "-//W3C//DTD SVG 1.1//EN" "http://www.w3.org/Graphics/SVG/1.1/DTD/svg11.dtd"><svg t="1778981258793" class="icon" viewBox="0 0 1024 1024" version="1.1" xmlns="http://www.w3.org/2000/svg" p-id="9009" xmlns:xlink="http://www.w3.org/1999/xlink" width="200" height="200"><path d="M512 512m-512 0a512 512 0 1 0 1024 0 512 512 0 1 0-1024 0Z" fill="#FCD462" p-id="9010"></path><path d="M512 71.24c-243.425 0-440.76 197.335-440.76 440.76S268.575 952.76 512 952.76 952.76 755.425 952.76 512 755.425 71.24 512 71.24z m0.0025 832.76c-216.155 0-392-175.845-392-392S295.8475 120 512.0025 120s392 175.845 392 392-175.8475 392-392 392z" fill="#F6C358" p-id="9011"></path><path d="M496.835 798.1v-50.385c-63.08-6.46-119.6975-31.5125-169.8025-75.2675l50.385-60.045c38.645 33.59 78.4125 53.6425 119.4175 60.045v-133.91c-52.0125-12.4125-90.0975-28.7025-114.25-48.98-24.1525-20.22-36.23-50.2725-36.23-90.0975 0-39.7675 13.875-72.3475 41.735-97.6225 27.86-25.3325 64.09-39.15 108.745-41.4525V225.8975h44.15v35.2175c50.61 3.65 98.465 20.9525 143.57 51.7325L639.675 376.375c-30.3875-21.625-63.2475-34.995-98.69-40.05v129.7525h2.0775c52.9125 12.4125 91.7825 29.265 116.6075 50.385 24.8825 21.175 37.2975 51.9 37.2975 92.175 0 40.275-14.2675 73.02-42.8025 98.3525-28.535 25.2775-66.225 39.095-113.1825 41.3975v49.71h-44.1475z m-48.7-445.5375c-11.74 10.335-17.58 23.255-17.58 38.645 0 15.4475 4.605 27.58 13.8175 36.5675 9.155 8.9875 26.68 17.6375 52.4625 25.895V334.25c-20.7275 1.8525-36.96 7.975-48.7 18.3125z m145.3125 302.6425c12.8625-10.56 19.3225-23.9275 19.3225-40.05 0-16.065-5.055-28.8725-15.165-38.3075-10.1675-9.38-29.04-18.255-56.62-26.5675v124.2475c22.0725-2.3025 39.5425-8.7075 52.4625-19.3225z" fill="#ed9c25" p-id="9012"></path></svg>