<?xml version="1.0" standalone="no"?><!DOCTYPE svg PUBLIC "-//W3C//DTD SVG 1.1//EN" "http://www.w3.org/Graphics/SVG/1.1/DTD/svg11.dtd"><svg t="1778582544801" class="icon" viewBox="0 0 1052 1024" version="1.1" xmlns="http://www.w3.org/2000/svg" p-id="9248" xmlns:xlink="http://www.w3.org/1999/xlink" width="205.46875" height="200"><path d="M533.333333 0c-282.766222 0-512 229.233778-512 512s229.233778 512 512 512 512-229.233778 512-512-229.233778-512-512-512z m245.617778 589.710222H606.435556v177.635556c0 15.388444-8.533333 23.921778-23.893334 23.921778h-112.753778c-15.36 0-23.324444-8.533333-23.324444-23.893334v-177.664H277.902222c-15.928889 0-23.893333-8.533333-23.893333-23.893333v-107.064889c0-15.36 7.964444-23.893333 23.893333-23.893333h168.533334V256.085333c0-15.36 7.964444-23.352889 23.352888-23.352889h112.725334c15.36 0 23.921778 7.964444 23.921778 23.324445v178.801778h172.515555c15.36 0 23.324444 8.533333 23.324445 23.893333v107.064889c0 15.36-7.964444 23.893333-23.324445 23.893333z" fill="#ffffff" p-id="9249"></path></svg>