<?xml version="1.0" standalone="no"?><!DOCTYPE svg PUBLIC "-//W3C//DTD SVG 1.1//EN" "http://www.w3.org/Graphics/SVG/1.1/DTD/svg11.dtd"><svg t="1778582609473" class="icon" viewBox="0 0 1024 1024" version="1.1" xmlns="http://www.w3.org/2000/svg" p-id="11190" xmlns:xlink="http://www.w3.org/1999/xlink" width="200" height="200"><path d="M211.65579378 428.36514133l331.56361481-1.89326222 0.44297482 77.6722963-331.56361482 1.89326222zM211.71162075 605.93129245l252.67768888-1.89326223 0.58254222 77.6722963-252.67768888 1.89326223zM211.82084741 251.12788385l561.54642962-2.53648593 0.3519526 77.6722963-561.54642963 2.53648593z" p-id="11191" fill="#ffffff"></path><path d="M471.10068148 998.30139259H117.8130963c-21.48124445 0-38.83614815-17.3549037-38.83614815-38.83614814V88.80734815c0-21.48124445 17.3549037-38.83614815 38.83614815-38.83614815h783.64065185c21.48124445 0 38.83614815 17.3549037 38.83614815 38.83614815v430.2317037c0 21.48124445-17.3549037 38.83614815-38.83614815 38.83614815s-38.83614815-17.3549037-38.83614815-38.83614815V127.6434963H156.64924445v792.86423703h314.45143703c21.48124445 0 38.83614815 17.3549037 38.83614815 38.83614815s-17.3549037 38.95751111-38.83614815 38.95751111z" p-id="11192" fill="#ffffff"></path><path d="M715.76841482 939.07626667c-112.62482963 0-204.25386667-91.62903703-204.25386667-204.25386667s91.62903703-204.25386667 204.25386667-204.25386667 204.25386667 91.62903703 204.25386666 204.25386667-91.7504 204.25386667-204.25386666 204.25386667z m0-330.83543704c-69.7837037 0-126.58157037 56.79786667-126.58157037 126.58157037s56.79786667 126.58157037 126.58157037 126.58157037 126.58157037-56.79786667 126.58157036-126.58157037-56.91922963-126.58157037-126.58157036-126.58157037z" p-id="11193" fill="#ffffff"></path><path d="M925.60497778 984.95146667c-9.70903703 0-19.41807408-3.64088889-26.94257778-10.92266667L805.81973333 884.5842963c-15.4130963-14.92764445-15.89854815-39.44296297-0.9709037-54.85605927 14.92764445-15.4130963 39.44296297-15.89854815 54.85605926-0.9709037l92.84266666 89.4445037c15.4130963 14.92764445 15.89854815 39.44296297 0.9709037 54.85605927-7.5245037 8.00995555-17.71899259 11.89357037-27.91348147 11.89357037z" p-id="11194" fill="#ffffff"></path></svg>