<?xml version="1.0" standalone="no"?><!DOCTYPE svg PUBLIC "-//W3C//DTD SVG 1.1//EN" "http://www.w3.org/Graphics/SVG/1.1/DTD/svg11.dtd"><svg t="1778583115477" class="icon" viewBox="0 0 1024 1024" version="1.1" xmlns="http://www.w3.org/2000/svg" p-id="12247" xmlns:xlink="http://www.w3.org/1999/xlink" width="200" height="200"><path d="M530.846476 99.986286l316.952381 84.528762A73.142857 73.142857 0 0 1 902.095238 255.195429v400.847238a73.142857 73.142857 0 0 1-29.891048 59.001904l-316.95238 232.423619a73.142857 73.142857 0 0 1-86.50362 0l-316.95238-232.448A73.142857 73.142857 0 0 1 121.904762 656.042667V255.195429a73.142857 73.142857 0 0 1 54.296381-70.680381l316.952381-84.528762a73.142857 73.142857 0 0 1 37.692952 0zM512 170.666667L195.047619 255.195429v400.847238l316.952381 232.448 316.952381-232.448V255.195429L512 170.666667z m144.944762 142.140952l51.443809 51.95581-261.851428 259.218285-131.047619-130.998857 51.687619-51.736381 79.62819 79.579429 210.139429-208.042667z" p-id="12248" fill="#014fb8"></path></svg>